<?xml version="1.0" encoding="UTF-8" standalone="no"?>
<svg width="445px" height="432px" viewBox="0 0 445 432" version="1.1" xmlns="http://www.w3.org/2000/svg" xmlns:xlink="http://www.w3.org/1999/xlink" xmlns:sketch="http://www.bohemiancoding.com/sketch/ns">
    <title>icon</title>
    <description>Created with Sketch (http://www.bohemiancoding.com/sketch)</description>
    <defs>
        <linearGradient x1="50%" y1="0%" x2="50%" y2="100%" id="linearGradient-1">
            <stop stop-color="#6EC9FF" offset="0%"></stop>
            <stop stop-color="#029CDC" offset="100%"></stop>
        </linearGradient>
    </defs>
    <g id="Icons" stroke="none" stroke-width="1" fill="none" fill-rule="evenodd" sketch:type="MSPage">
        <g id="512---iTunesArtwork-+-Grid-+-Minute-Ring-+-Hour-Ring" sketch:type="MSLayerGroup" transform="translate(-40.000000, -42.000000)">
            <g id="Minute-Ring-+-Hour-Ring" transform="translate(40.000000, 42.000000)" sketch:type="MSShapeGroup">
                <path d="M216,432 C335.293512,432 432,335.293512 432,216 C432,96.7064881 335.293512,0 216,0 C96.7064881,0 0,96.7064881 0,216 C0,335.293512 96.7064881,432 216,432 Z M216.25179,414.914081 C325.969949,414.914081 414.914081,325.969949 414.914081,216.25179 C414.914081,106.533631 325.969949,17.5894988 216.25179,17.5894988 C106.533631,17.5894988 17.5894988,106.533631 17.5894988,216.25179 C17.5894988,325.969949 106.533631,414.914081 216.25179,414.914081 Z" id="Minute-Ring" fill="#FFFFFF"></path>
                <path d="M216.210704,378.92422 C305.794721,378.92422 378.416908,306.302033 378.416908,216.718016 C378.416908,127.133998 305.794721,54.511811 216.210704,54.511811 C126.626686,54.511811 54.0044994,127.133998 54.0044994,216.718016 C54.0044994,306.302033 126.626686,378.92422 216.210704,378.92422 Z M216.228735,361.718356 C296.310028,361.718356 361.228735,296.799649 361.228735,216.718356 C361.228735,136.637063 296.310028,71.7183561 216.228735,71.7183561 C136.147442,71.7183561 71.2287351,136.637063 71.2287351,216.718356 C71.2287351,296.799649 136.147442,361.718356 216.228735,361.718356 Z" id="Hour-Ring" fill="#FDFBFB"></path>
                <path d="M216.5,392 C228.374123,392 238,382.374123 238,370.5 C238,358.625877 228.374123,349 216.5,349 C204.625877,349 195,358.625877 195,370.5 C195,382.374123 204.625877,392 216.5,392 Z" id="Oval-65" fill="#FFFFFF"></path>
                <path d="M423.5,238 C435.374123,238 445,228.374123 445,216.5 C445,204.625877 435.374123,195 423.5,195 C411.625877,195 402,204.625877 402,216.5 C402,228.374123 411.625877,238 423.5,238 Z" id="Oval-65" fill="#FFFFFF"></path>
            </g>
        </g>
    </g>
</svg>